<svg width="80" height="80" viewBox="0 0 80 80" fill="none" xmlns="http://www.w3.org/2000/svg">
<g clip-path="url(#clip0_151_213)">
<path d="M52.0807 51.67H45.8407L44.1107 47.34C42.3307 42.88 38.0807 40 33.2807 40H20.0507C15.2507 40 11.0007 42.88 9.22069 47.33L7.49069 51.66H1.25069C0.440693 51.66 -0.159307 52.42 0.0406934 53.21L0.670693 55.71C0.810693 56.27 1.31069 56.66 1.88069 56.66H3.97069C2.57069 57.88 1.67069 59.66 1.67069 61.66V66.66C1.67069 68.34 2.31069 69.85 3.34069 71.03V76.66C3.34069 78.5 4.83069 79.99 6.67069 79.99H10.0007C11.8407 79.99 13.3307 78.5 13.3307 76.66V73.33H40.0007V76.66C40.0007 78.5 41.4907 79.99 43.3307 79.99H46.6607C48.5007 79.99 49.9907 78.5 49.9907 76.66V71.03C51.0207 69.86 51.6607 68.34 51.6607 66.66V61.66C51.6607 59.66 50.7607 57.88 49.3607 56.66H51.4507C52.0207 56.66 52.5207 56.27 52.6607 55.71L53.2907 53.21C53.4907 52.43 52.9007 51.67 52.0807 51.67ZM15.4107 49.81C16.1707 47.91 18.0107 46.67 20.0507 46.67H33.2807C35.3207 46.67 37.1607 47.91 37.9207 49.81L40.0007 55H13.3307L15.4107 49.81ZM10.0007 66.65C8.00069 66.65 6.67069 65.32 6.67069 63.33C6.67069 61.33 8.00069 60 10.0007 60C12.0007 60 15.0007 62.99 15.0007 64.98C15.0007 66.97 12.0007 66.65 10.0007 66.65ZM43.3307 66.65C41.3307 66.65 38.3307 66.98 38.3307 64.99C38.3307 63 41.3307 60.01 43.3307 60.01C45.3307 60.01 46.6607 61.34 46.6607 63.33C46.6707 65.32 45.3307 66.65 43.3307 66.65Z" fill="#3A3A3A"/>
<path d="M79.2905 25.76L71.6705 18.14C70.1705 16.64 67.9205 16.34 66.1105 17.24L59.1705 10.3V6.25001L50.8405 9.93349e-06L46.6705 4.17001L52.9205 12.5H56.9605L63.9005 19.44C63.0105 21.25 63.3005 23.5 64.8005 25L72.4205 32.62C73.3705 33.57 74.9105 33.57 75.8505 32.62L79.2805 29.19C80.2405 28.24 80.2405 26.7 79.2905 25.76ZM68.2605 14.65C70.1005 14.65 71.8305 15.37 73.1405 16.67L74.4005 17.93C75.4305 17.48 76.4105 16.86 77.2505 16.01C79.6705 13.59 80.4905 10.2 79.7205 7.11001C79.5805 6.52001 78.8405 6.32001 78.4105 6.75001L73.5705 11.59L69.1505 10.85L68.4105 6.43001L73.2505 1.59001C73.6805 1.16001 73.4705 0.42001 72.8805 0.27001C69.7905 -0.48999 66.4005 0.33001 63.9905 2.74001C62.1305 4.60001 61.2605 7.04001 61.3105 9.48001L66.6505 14.82C67.1805 14.71 67.7305 14.65 68.2605 14.65ZM61.5005 19.99L57.8105 16.3L47.8905 26.23C46.2605 27.86 46.2605 30.49 47.8905 32.12C49.5205 33.75 52.1505 33.75 53.7805 32.12L61.8305 24.07C61.3305 22.77 61.1805 21.36 61.5005 19.99ZM50.8405 30.73C49.9805 30.73 49.2805 30.03 49.2805 29.17C49.2805 28.3 49.9805 27.61 50.8405 27.61C51.7105 27.61 52.4005 28.31 52.4005 29.17C52.4005 30.02 51.7005 30.73 50.8405 30.73Z" fill="#3A3A3A"/>
</g>
<defs>
<clipPath id="clip0_151_213">
<rect width="80" height="80" fill="white"/>
</clipPath>
</defs>
</svg>
