<svg width="80" height="80" viewBox="0 0 80 80" fill="none" xmlns="http://www.w3.org/2000/svg">
<path d="M49.2409 5.06H69.0609C70.1309 5.06 71.0009 4.19 71.0009 3.12V2.94C71.0009 1.87 70.1309 1 69.0609 1H49.2409C48.1709 1 47.3009 1.87 47.3009 2.94V3.12C47.2909 4.19 48.1609 5.06 49.2409 5.06Z" fill="#3A3A3A"/>
<path d="M48.6291 11.14H68.9691C69.7091 11.14 70.3091 10.54 70.3091 9.79996C70.3091 9.05996 69.7091 8.45996 68.9691 8.45996H48.6291C47.8891 8.45996 47.2891 9.05996 47.2891 9.79996C47.2891 10.54 47.8891 11.14 48.6291 11.14Z" fill="#3A3A3A"/>
<path d="M48.6291 16.14H68.4691C69.2091 16.14 69.8091 15.54 69.8091 14.8C69.8091 14.06 69.2091 13.46 68.4691 13.46H48.6291C47.8891 13.46 47.2891 14.06 47.2891 14.8C47.2891 15.54 47.8891 16.14 48.6291 16.14Z" fill="#3A3A3A"/>
<path d="M48.6291 21.14H68.4691C69.2091 21.14 69.8091 20.54 69.8091 19.8C69.8091 19.06 69.2091 18.46 68.4691 18.46H48.6291C47.8891 18.46 47.2891 19.06 47.2891 19.8C47.2891 20.54 47.8891 21.14 48.6291 21.14Z" fill="#3A3A3A"/>
<path d="M48.6291 26.14H67.9191C68.6591 26.14 69.2591 25.54 69.2591 24.8C69.2591 24.06 68.6591 23.46 67.9191 23.46H48.6291C47.8891 23.46 47.2891 24.06 47.2891 24.8C47.2891 25.54 47.8891 26.14 48.6291 26.14Z" fill="#3A3A3A"/>
<path d="M48.6291 31.14H67.6991C68.4391 31.14 69.0391 30.54 69.0391 29.8C69.0391 29.06 68.4391 28.46 67.6991 28.46H48.6291C47.8891 28.46 47.2891 29.06 47.2891 29.8C47.2891 30.54 47.8891 31.14 48.6291 31.14Z" fill="#3A3A3A"/>
<path d="M48.6291 36.14H67.6991C68.4391 36.14 69.0391 35.54 69.0391 34.8C69.0391 34.06 68.4391 33.46 67.6991 33.46H48.6291C47.8891 33.46 47.2891 34.06 47.2891 34.8C47.2891 35.54 47.8891 36.14 48.6291 36.14Z" fill="#3A3A3A"/>
<path d="M70.9909 3.15005L69.5609 49.7401C69.5509 50.1501 69.5509 50.5601 69.5809 50.9701L71.0009 74.7401C71.0009 77.6501 69.1709 80.0001 66.9109 80.0001C64.0009 80.0001 61.6309 76.9601 61.6309 73.2001V38.9701C61.6309 37.4101 62.6109 36.1401 63.8209 36.1401H64.4109C65.6209 36.1401 66.6009 34.8801 66.6009 33.3101V5.51005C66.6009 3.95005 67.5809 2.68005 68.7909 2.68005H70.6209C70.8409 2.68005 70.9909 2.89005 70.9909 3.15005Z" fill="#3A3A3A"/>
<path d="M32.59 32.29H11.47C10.11 32.29 9 33.4 9 34.77V77.53C9 78.89 10.11 80 11.47 80H32.59C33.95 80 35.06 78.89 35.06 77.53V34.77C35.06 33.4 33.95 32.29 32.59 32.29ZM25.94 35.91L26.91 36.42L27.88 35.91L27.69 36.99L28.48 37.76L27.39 37.92L26.91 38.9L26.42 37.92L25.34 37.76L26.12 36.99L25.94 35.91ZM13.51 39.01L13.55 37.85L14.45 38.59L15.56 38.26L15.14 39.34L15.8 40.3L14.64 40.24L13.93 41.16L13.63 40.03L12.54 39.64L13.51 39.01ZM13.41 50.18L14.01 48.63L14.88 50.04L16.53 50.13L15.45 51.4L15.88 53L14.35 52.36L12.95 53.27L13.09 51.61L11.8 50.56L13.41 50.18ZM16.82 68.25L15.19 70.24L14.6 67.74L12.2 66.8L14.41 65.47L14.55 62.9L16.5 64.58L18.99 63.93L18 66.3L19.39 68.47L16.82 68.25ZM28.44 74.63L27.65 77.12L26.16 74.98L23.55 74.99L25.12 72.92L24.3 70.44L26.76 71.29L28.86 69.75L28.81 72.36L30.93 73.88L28.44 74.63ZM23.99 59.96L25.35 60.07L26.21 59.02L26.52 60.34L27.79 60.84L26.63 61.54L26.55 62.9L25.52 62.01L24.21 62.36L24.73 61.1L23.99 59.96ZM29.3 49.79L28.74 53L26.53 50.6L23.31 51.06L24.91 48.22L23.48 45.3L26.67 45.94L29.01 43.68L29.38 46.91L32.26 48.43L29.3 49.79Z" fill="#3A3A3A"/>
<path d="M30.56 25.51V29.09C30.56 30.22 29.64 31.14 28.51 31.14H15.55C14.42 31.14 13.5 30.22 13.5 29.09V25.51C13.5 24.38 14.42 23.46 15.55 23.46H28.51C29.64 23.46 30.56 24.38 30.56 25.51Z" fill="#3A3A3A"/>
<path d="M26.4391 7.62995C26.4391 8.12995 26.1491 8.58995 25.6991 8.80995L23.3491 9.93995C22.4391 10.3699 22.3491 11.6299 23.1791 12.1999L25.8791 14.0499C26.2391 14.2899 26.4491 14.6999 26.4491 15.1299V20.7799C26.4491 21.4999 25.8591 22.0899 25.1391 22.0899H18.9291C18.2091 22.0899 17.6191 21.4999 17.6191 20.7799V7.62995C17.6191 6.90995 18.2091 6.31995 18.9291 6.31995H25.1391C25.8491 6.31995 26.4391 6.90995 26.4391 7.62995Z" fill="#3A3A3A"/>
<path d="M28.5508 9.32005L28.2408 13.36C28.2108 13.81 27.7008 14.05 27.3308 13.79L26.4408 13.18L23.9808 11.49C23.6108 11.24 23.6508 10.68 24.0608 10.49L26.4408 9.35005L27.7208 8.74005C28.1308 8.56005 28.5908 8.88005 28.5508 9.32005Z" fill="#3A3A3A"/>
</svg>
