<svg width="80" height="80" viewBox="0 0 80 80" fill="none" xmlns="http://www.w3.org/2000/svg">
<path d="M8.42083 15.6H79.0091C79.587 15.6 79.9998 16 79.9998 16.56V21.2C79.9998 21.76 79.587 22.16 79.0091 22.16H6.76964C6.10917 22.16 5.53125 21.6 5.53125 20.96V18.4C5.53125 16.8 6.76964 15.6 8.42083 15.6Z" fill="#3A3A3A"/>
<path d="M8.42056 22.08H7.09961V43.84H8.42056V22.08Z" fill="#3A3A3A"/>
<path d="M78.1839 34.3199H67.121C66.1303 34.3199 65.3047 33.5199 65.3047 32.5599V25.1999C65.3047 24.2399 66.1303 23.4399 67.121 23.4399H78.1839C79.1747 23.4399 80.0003 24.2399 80.0003 25.1999V32.5599C80.0003 33.5999 79.1747 34.3199 78.1839 34.3199Z" fill="#3A3A3A"/>
<path d="M11.0631 22.08H9.74219V43.84H11.0631V22.08Z" fill="#3A3A3A"/>
<path d="M9.08103 45.76C10.1753 45.76 11.0625 44.9004 11.0625 43.84C11.0625 42.7797 10.1753 41.92 9.08103 41.92C7.98672 41.92 7.09961 42.7797 7.09961 43.84C7.09961 44.9004 7.98672 45.76 9.08103 45.76Z" fill="#3A3A3A"/>
<path d="M9.74282 45.52H8.42188V48.4H9.74282V45.52Z" fill="#3A3A3A"/>
<path d="M11.8053 50.48C11.8053 51.92 10.6495 53.04 9.16338 53.04C7.67731 53.04 6.52148 51.92 6.52148 50.48H7.59476C7.59476 51.28 8.25523 51.92 9.08082 51.92C9.90642 51.92 10.5669 51.28 10.5669 50.48C10.5669 49.68 9.90642 49.04 9.08082 49.04C8.75059 49.04 8.42035 48.72 8.42035 48.4V48C8.50291 48 8.50291 48 8.58547 48C8.75059 47.92 8.99826 47.92 9.16338 47.92C9.3285 47.92 9.41106 47.92 9.57618 47.92C10.8146 48.16 11.8053 49.2 11.8053 50.48Z" fill="#3A3A3A"/>
<path d="M9.57665 48.0001C9.49409 48.0001 9.32897 48.0001 9.16385 48.0001C8.91617 48.0001 8.75106 48.0001 8.58594 48.0801C8.6685 47.9201 8.91618 47.8401 9.08129 47.8401C9.32897 47.7601 9.49409 47.8401 9.57665 48.0001Z" fill="#3A3A3A"/>
<path d="M7.0994 51.04C7.41857 51.04 7.67731 50.7893 7.67731 50.48C7.67731 50.1708 7.41857 49.92 7.0994 49.92C6.78023 49.92 6.52148 50.1708 6.52148 50.48C6.52148 50.7893 6.78023 51.04 7.0994 51.04Z" fill="#3A3A3A"/>
<path d="M13.2926 57.2799L8.58673 52.7199C8.42161 52.5599 8.42161 52.2399 8.58673 52.0799L8.91697 51.7599C9.08209 51.5999 9.41232 51.5999 9.57744 51.7599L14.2833 56.3199C14.4484 56.4799 14.4484 56.7999 14.2833 56.9599L13.9531 57.2799C13.788 57.4399 13.4577 57.4399 13.2926 57.2799Z" fill="#3A3A3A"/>
<path d="M5.03643 57.2799L9.74231 52.7199C9.90743 52.5599 9.90743 52.2399 9.74231 52.0799L9.41207 51.7599C9.24695 51.5999 8.91671 51.5999 8.7516 51.7599L4.04571 56.3199C3.8806 56.4799 3.8806 56.7999 4.04571 56.9599L4.37595 57.2799C4.62363 57.4399 4.87131 57.4399 5.03643 57.2799Z" fill="#3A3A3A"/>
<path d="M16.1816 69.28H2.14654C0.990712 69.28 0 68.32 0 67.2V58.72C0 57.6 0.990712 56.64 2.14654 56.64H16.1816C17.3375 56.64 18.3282 57.6 18.3282 58.72V67.2C18.3282 68.4 17.42 69.28 16.1816 69.28Z" fill="#3A3A3A"/>
<path d="M56.7998 3.84C57.8941 3.84 58.7812 2.98039 58.7812 1.92C58.7812 0.859613 57.8941 0 56.7998 0C55.7055 0 54.8184 0.859613 54.8184 1.92C54.8184 2.98039 55.7055 3.84 56.7998 3.84Z" fill="#3A3A3A"/>
<path d="M56.7885 1.92592L55.6445 2.56592L66.8726 21.4101L68.0165 20.7701L56.7885 1.92592Z" fill="#3A3A3A"/>
<path d="M56.7945 1.91805L45.5664 20.7622L46.7103 21.4022L57.9384 2.55805L56.7945 1.91805Z" fill="#3A3A3A"/>
<path d="M56.4333 0.738357L8.05859 15.9462L8.46624 17.1637L56.841 1.95589L56.4333 0.738357Z" fill="#3A3A3A"/>
<path d="M57.7641 1.02961L56.8301 1.93469L72.7088 17.3212L73.6429 16.4161L57.7641 1.02961Z" fill="#3A3A3A"/>
<path d="M67.9459 20.9601H66.625V24.6401H67.9459V20.9601Z" fill="#3A3A3A"/>
<path d="M78.6803 21.2H77.3594V24.88H78.6803V21.2Z" fill="#3A3A3A"/>
<path d="M67.8647 74H45.6562V70.96C45.6562 69.44 46.8946 68.24 48.4633 68.24H65.0577C66.6263 68.24 67.8647 69.44 67.8647 70.96V74Z" fill="#3A3A3A"/>
<path fill-rule="evenodd" clip-rule="evenodd" d="M50.8555 22.08H62.744V68.24H50.8555V22.08ZM54.3233 30.32H59.2768C59.8547 30.32 60.3501 29.84 60.3501 29.36V24.56C60.3501 24 59.8547 23.52 59.2768 23.52H57.1303C54.9837 23.52 53.25 25.2 53.25 27.28V29.28C53.25 29.84 53.7454 30.32 54.3233 30.32Z" fill="#3A3A3A"/>
<path d="M71.2496 80.0001H42.3538C41.4456 80.0001 40.7852 79.2801 40.7852 78.4801V77.7601C40.7852 75.6801 42.5189 74.0001 44.6654 74.0001H69.0204C71.167 74.0001 72.9007 75.6801 72.9007 77.7601V78.4801C72.8182 79.2801 72.1577 80.0001 71.2496 80.0001Z" fill="#3A3A3A"/>
</svg>
