<svg width="60" height="55" viewBox="0 0 60 55" fill="none" xmlns="http://www.w3.org/2000/svg">
<path d="M0.000287299 29.1118C0.25343 29.1584 0.655326 29.2438 1.12507 29.4145C2.80051 30.0225 3.87311 31.1402 4.60122 32.0457C7.68851 35.8851 10.5305 43.5794 10.5305 43.5794C11.0263 44.9222 12.1198 47.8819 13.9023 52.6838C14.1189 52.9735 14.8809 53.923 16.0474 53.9981C16.5876 54.0317 17.0026 53.8661 17.1722 53.7963C18.8894 53.0822 20.223 50.495 21.2617 48.0294C21.7732 46.816 22.7022 44.4668 23.5112 42.8705C23.9131 42.0763 24.3516 40.8525 26.0661 37.9134C28.5114 33.7248 29.7328 31.6291 30.5627 30.3252C31.9876 28.0899 32.9558 26.4961 34.8557 23.8494C37.7446 19.8186 38.7833 18.5586 40.2708 16.8692C40.7406 16.3362 43.2329 13.3997 46.2001 10.7996C48.1835 9.06102 49.7284 7.93041 52.7427 5.74164C54.4494 4.4972 56.7695 2.85691 59.588 0.986369C59.6689 0.932038 59.9585 0.72765 59.9977 0.479278C60.0029 0.437883 59.9977 0.40425 59.9977 0.378378C59.9977 0.277477 59.7915 0.0860243 59.6923 0.0756755C58.7737 -0.0252252 58.1604 -0.0252252 57.2392 0.0756755C56.9861 0.104135 56.7277 0.176576 56.7277 0.176576C56.7277 0.176576 56.2162 0.295587 55.7047 0.479278C53.048 1.44948 49.9816 3.41575 49.9816 3.41575C47.0091 5.32251 45.5216 6.2746 44.1567 7.26033C41.9671 8.8411 40.3804 10.1399 39.454 10.9031C38.1674 11.9613 36.7555 13.1255 35.0592 14.7477C33.3368 16.3957 32.1885 17.6893 30.7662 19.3011C29.3022 20.9595 27.2196 23.3294 24.7352 26.685C22.2116 30.0975 20.5179 32.8477 19.5236 34.4751C18.3779 36.3482 17.4515 37.9781 16.7651 39.2303C16.6868 39.3907 16.6111 39.427 16.5616 39.4321C16.1962 39.4709 15.87 38.0609 15.1314 36.2965C14.9487 35.8618 14.6695 35.3004 14.1084 34.1724C13.5238 32.9952 12.493 31.0988 10.7367 28.5064C10.5148 28.214 9.7789 27.2645 8.89681 26.685C8.64889 26.522 8.38531 26.3823 8.38531 26.3823C8.17914 26.2736 7.67025 25.9994 7.15874 25.8752C6.45673 25.7071 5.86954 25.8442 5.31889 25.9761C4.65863 26.1339 4.21498 26.359 3.58082 26.685C2.85532 27.0602 2.35164 27.4043 1.63919 27.8984C1.21902 28.1856 0.652717 28.5918 0.000287299 29.1118Z" fill="#75B96C"/>
</svg>
