<svg width="51" height="50" viewBox="0 0 51 50" fill="none" xmlns="http://www.w3.org/2000/svg">
<path d="M25.8379 19.0469C24.6606 19.0473 23.5098 19.3968 22.5311 20.0512C21.5524 20.7056 20.7897 21.6356 20.3395 22.7234C19.8893 23.8112 19.7717 25.0081 20.0017 26.1628C20.2316 27.3174 20.7988 28.3779 21.6314 29.2103C22.4641 30.0426 23.5248 30.6094 24.6795 30.8389C25.8343 31.0684 27.0311 30.9504 28.1188 30.4998C29.2065 30.0491 30.1361 29.2861 30.7901 28.3071C31.4442 27.3282 31.7932 26.1773 31.7932 25C31.7921 23.4211 31.1642 21.9073 30.0475 20.791C28.9309 19.6748 27.4168 19.0475 25.8379 19.0469V19.0469ZM39.7564 14.471C39.4534 13.7029 38.9957 13.0054 38.4119 12.4215C37.828 11.8377 37.1305 11.3801 36.3624 11.077C34.0187 10.1518 28.4383 10.3594 25.8379 10.3594C23.2374 10.3594 17.6627 10.144 15.3122 11.077C14.5442 11.3801 13.8466 11.8377 13.2628 12.4215C12.679 13.0054 12.2213 13.7029 11.9182 14.471C10.9941 16.8147 11.2006 22.4007 11.2006 24.9989C11.2006 27.5971 10.9941 33.1763 11.9227 35.5279C12.2258 36.2959 12.6834 36.9935 13.2672 37.5773C13.8511 38.1612 14.5487 38.6188 15.3167 38.9219C17.6604 39.8471 23.2408 39.6395 25.8424 39.6395C28.4439 39.6395 34.0165 39.8549 36.3669 38.9219C37.1349 38.6188 37.8325 38.1612 38.4163 37.5773C39.0002 36.9935 39.4578 36.2959 39.7609 35.5279C40.6928 33.1841 40.4785 27.5982 40.4785 25C40.4785 22.4018 40.6928 16.8237 39.7609 14.4721L39.7564 14.471ZM25.8379 34.1518C24.0278 34.1518 22.2584 33.615 20.7534 32.6094C19.2484 31.6038 18.0754 30.1745 17.3827 28.5022C16.6901 26.83 16.5088 24.9898 16.862 23.2146C17.2151 21.4393 18.0867 19.8086 19.3666 18.5287C20.6465 17.2488 22.2772 16.3772 24.0525 16.0241C25.8277 15.6709 27.6679 15.8522 29.3401 16.5449C31.0124 17.2375 32.4417 18.4105 33.4473 19.9155C34.4529 21.4205 34.9897 23.1899 34.9897 25C34.9911 26.2022 34.7554 27.393 34.296 28.504C33.8366 29.615 33.1626 30.6245 32.3125 31.4746C31.4623 32.3247 30.4529 32.9987 29.3419 33.4581C28.2309 33.9175 27.0401 34.1533 25.8379 34.1518V34.1518ZM35.3669 17.6004C34.9444 17.6007 34.5313 17.4756 34.1798 17.241C33.8284 17.0064 33.5544 16.6728 33.3926 16.2825C33.2307 15.8922 33.1882 15.4627 33.2705 15.0482C33.3528 14.6338 33.5562 14.253 33.8549 13.9542C34.1536 13.6553 34.5342 13.4518 34.9486 13.3693C35.363 13.2867 35.7926 13.329 36.183 13.4906C36.5734 13.6523 36.9071 13.9261 37.1419 14.2774C37.3766 14.6287 37.502 15.0417 37.502 15.4643C37.5031 15.7449 37.4489 16.0229 37.3424 16.2825C37.2358 16.5421 37.0791 16.7781 36.8812 16.977C36.6832 17.1759 36.4479 17.3337 36.1889 17.4415C35.9298 17.5492 35.652 17.6048 35.3714 17.6049L35.3669 17.6004ZM45.4807 0H6.19503C4.77423 0 3.41162 0.564412 2.40696 1.56907C1.4023 2.57373 0.837891 3.93634 0.837891 5.35714L0.837891 44.6429C0.837891 46.0637 1.4023 47.4263 2.40696 48.4309C3.41162 49.4356 4.77423 50 6.19503 50H45.4807C46.9015 50 48.2642 49.4356 49.2688 48.4309C50.2735 47.4263 50.8379 46.0637 50.8379 44.6429V5.35714C50.8379 3.93634 50.2735 2.57373 49.2688 1.56907C48.2642 0.564412 46.9015 0 45.4807 0V0ZM43.57 32.3661C43.4261 35.2266 42.7732 37.7612 40.685 39.8437C38.5968 41.9263 36.0645 42.5926 33.2073 42.7288C30.2598 42.8951 21.4227 42.8951 18.4752 42.7288C15.6147 42.5848 13.089 41.9308 10.9975 39.8437C8.90597 37.7567 8.2486 35.221 8.11244 32.3661C7.94615 29.4174 7.94615 20.5792 8.11244 17.6339C8.25642 14.7734 8.90151 12.2388 10.9975 10.1562C13.0935 8.07366 15.6258 7.41518 18.4752 7.27902C21.4227 7.11272 30.2598 7.11272 33.2073 7.27902C36.0678 7.42299 38.6013 8.07701 40.685 10.1641C42.7687 12.2511 43.4339 14.7868 43.57 17.6473C43.7363 20.5848 43.7363 29.4152 43.57 32.3661Z" fill="#3A3A3A"/>
</svg>
