<svg width="80" height="80" viewBox="0 0 80 80" fill="none" xmlns="http://www.w3.org/2000/svg">
<g clip-path="url(#clip0_252_2)">
<path d="M64.1677 80.2408H15.8317C14.4157 80.2408 13.2637 79.0945 13.2637 77.6855V75.998C13.2637 74.589 14.4157 73.4427 15.8317 73.4427H64.1597C65.5757 73.4427 66.7277 74.589 66.7277 75.998V77.6855C66.7277 79.0945 65.5837 80.2408 64.1677 80.2408Z" fill="#3A3A3A"/>
<path d="M43.3608 67.7354H36.6328V73.4508H43.3608V67.7354Z" fill="#3A3A3A"/>
<path d="M45.6225 39.175L49.1953 41.3113L58.6855 25.5968L55.1127 23.4605L45.6225 39.175Z" fill="#3A3A3A"/>
<path d="M49.1949 41.3169L51.3418 37.7618L39.485 30.6724L37.3381 34.2275L49.1949 41.3169Z" fill="#3A3A3A"/>
<path d="M29.9897 46.3807L33.5625 48.517L43.0527 32.8025L39.4799 30.6662L29.9897 46.3807Z" fill="#3A3A3A"/>
<path d="M33.5542 48.5211L35.7012 44.9661L26.6834 39.5742L24.5365 43.1292L33.5542 48.5211Z" fill="#3A3A3A"/>
<path d="M17.2026 55.2859L20.7754 57.4221L30.2656 41.7076L26.6928 39.5714L17.2026 55.2859Z" fill="#3A3A3A"/>
<path d="M58.7546 34.6702L62.7988 33.667L59.4529 20.3126L55.4087 21.3158L58.7546 34.6702Z" fill="#3A3A3A"/>
<path d="M60.4536 24.3388L59.4453 20.3147L46.0241 23.644L47.0324 27.6681L60.4536 24.3388Z" fill="#3A3A3A"/>
<path d="M0 13.7811V63.9542C0 66.0398 1.704 67.7353 3.8 67.7353H76.2C78.296 67.7353 80 66.0398 80 63.9542V13.7811C80 11.6955 78.296 10 76.2 10H3.8C1.704 10 0 11.6955 0 13.7811ZM70.152 61.8368H9.848C7.752 61.8368 6.048 60.1413 6.048 58.0557V19.6876C6.048 17.602 7.752 15.9065 9.848 15.9065H70.152C72.248 15.9065 73.952 17.602 73.952 19.6876V58.0557C73.952 60.1413 72.248 61.8368 70.152 61.8368Z" fill="#3A3A3A"/>
</g>
<defs>
<clipPath id="clip0_252_2">
<rect width="80" height="80" fill="white"/>
</clipPath>
</defs>
</svg>
