<svg width="249" height="94" viewBox="0 0 249 94" fill="none" xmlns="http://www.w3.org/2000/svg">
<g clip-path="url(#clip0_151_275)">
<path d="M42.088 0.180664C42.0188 0.559416 41.884 1.1675 41.6211 1.87636C40.6839 4.40253 38.9617 6.02178 37.5645 7.11982C31.6438 11.776 19.7818 16.0639 19.7818 16.0639C17.7137 16.811 13.1487 18.4615 5.74438 21.151C5.2948 21.4776 3.83192 22.6278 3.7178 24.3895C3.66592 25.2061 3.92184 25.8281 4.02905 26.0852C5.1288 28.6774 9.11626 30.6858 12.9204 32.253C14.7914 33.0244 18.4157 34.4282 20.8746 35.6444C22.1023 36.2525 23.9836 36.9127 28.5175 39.4979C34.9777 43.1847 38.2078 45.0298 40.217 46.2807C43.665 48.4316 46.1204 49.891 50.2013 52.7577C56.4159 57.122 58.3629 58.6857 60.9636 60.9304C61.7867 61.6393 66.3136 65.399 70.3218 69.8745C73.002 72.8663 74.745 75.1979 78.1204 79.7429C80.0363 82.3212 82.5678 85.8203 85.452 90.0735C85.535 90.1986 85.8498 90.6329 86.2336 90.6885C86.2959 90.6989 86.3478 90.6885 86.3893 90.6885C86.5449 90.6885 86.8388 90.3792 86.8561 90.2264C87.0118 88.8399 87.0118 87.9121 86.8561 86.5257C86.8146 86.1435 86.7005 85.7543 86.7005 85.7543C86.7005 85.7543 86.5172 84.9829 86.2336 84.2115C84.7431 80.2051 81.7101 75.5766 81.7101 75.5766C78.7705 71.0907 77.3008 68.8495 75.7825 66.7889C73.3479 63.4844 71.342 61.0937 70.1662 59.6969C68.5339 57.7579 66.739 55.6244 64.2386 53.067C61.6968 50.4678 59.7013 48.7339 57.2182 46.5899C54.6625 44.38 51.007 41.2388 45.8334 37.493C40.5733 33.6846 36.3333 31.1341 33.8226 29.6295C30.9349 27.8991 28.4241 26.5057 26.4909 25.4667C26.2419 25.3486 26.1866 25.2339 26.1797 25.1575C26.1209 24.6084 28.2927 24.115 31.0144 22.9996C31.6819 22.7251 32.5534 22.3046 34.2895 21.4568C36.1051 20.5742 39.0308 19.021 43.0252 16.3697C43.4783 16.0361 44.9411 14.9242 45.8334 13.5934C46.0824 13.2215 46.3003 12.8219 46.3003 12.8219C46.4697 12.5127 46.8882 11.7448 47.0818 10.9734C47.3412 9.91355 47.1268 9.03095 46.9262 8.197C46.6841 7.19974 46.3383 6.5291 45.8334 5.57701C45.2558 4.48245 44.7233 3.72147 43.9624 2.64776C43.5163 2.0223 42.8903 1.17098 42.088 0.180664Z" fill="#75B96C"/>
<path d="M83.2802 11.1228C83.1211 11.3904 82.8513 11.8143 82.4571 12.2799C81.0461 13.9374 79.2962 14.6949 77.9336 15.1466C72.1616 17.0647 61.9976 17.096 61.9976 17.096C60.2235 17.0994 56.3121 17.1133 49.9626 17.1411C49.5338 17.2662 48.1055 17.7423 47.5314 19.0418C47.2651 19.643 47.2858 20.1851 47.2962 20.4109C47.4103 22.6695 49.8692 25.2721 52.3143 27.4891C53.5178 28.5801 55.8694 30.6233 57.3945 32.2113C58.1554 33.0036 59.3969 34.0112 62.1082 37.2011C65.9747 41.7426 67.9079 44.0117 69.0802 45.5058C71.093 48.0668 72.5455 49.8389 74.8384 53.1122C78.3313 58.0985 79.3688 59.8116 80.7175 62.2126C81.1429 62.9736 83.5257 67.0461 85.3206 71.5181C86.5206 74.5099 87.1915 76.7477 88.485 81.0981C89.2216 83.5687 90.1657 86.901 91.1686 90.904C91.1997 91.0221 91.3139 91.4356 91.5871 91.5816C91.632 91.6059 91.6735 91.6128 91.7047 91.6233C91.8223 91.6649 92.13 91.5121 92.1854 91.4009C92.6868 90.3932 92.9462 89.6913 93.2125 88.6002C93.2851 88.2979 93.3093 87.9747 93.3093 87.9747C93.3093 87.9747 93.3854 87.3423 93.382 86.6821C93.3647 83.2455 92.3548 78.9229 92.3548 78.9229C91.3761 74.7323 90.885 72.637 90.3075 70.6668C89.3807 67.5047 88.5265 65.1523 88.025 63.7763C87.3264 61.8652 86.5621 59.7664 85.3794 57.1533C84.1759 54.4986 83.1487 52.6465 81.8622 50.3497C80.5412 47.9868 78.646 44.6163 75.7687 40.3805C72.8429 36.0718 70.3425 32.9931 68.8624 31.1758C67.1574 29.084 65.6427 27.3466 64.4703 26.0366C64.3147 25.8802 64.3043 25.7795 64.3181 25.7204C64.4253 25.2895 66.2064 25.505 68.5753 25.3972C69.1563 25.3694 69.931 25.286 71.4803 25.1193C73.0988 24.942 75.7445 24.5598 79.5037 23.6355C79.9394 23.507 81.3539 23.0587 82.3983 22.2977C82.6922 22.0823 82.9655 21.8425 82.9655 21.8425C83.1799 21.6549 83.709 21.1858 84.0687 20.6542C84.5597 19.9244 84.6427 19.1947 84.7188 18.5102C84.8122 17.6902 84.7361 17.089 84.6185 16.2307C84.4871 15.2439 84.2935 14.5246 84.0133 13.5065C83.8508 12.9019 83.6122 12.0888 83.2802 11.1228Z" fill="#75B96C"/>
<path d="M21.7385 38.8933C21.7973 39.1991 21.8768 39.6925 21.8907 40.3006C21.9356 42.4654 21.1229 44.1785 20.4001 45.4051C17.3395 50.6103 9.71387 57.2541 9.71387 57.2541C8.38241 58.4147 5.44975 60.9721 0.694538 65.1314C0.455913 65.5067 -0.301462 66.7924 0.13083 68.1476C0.331413 68.773 0.708372 69.1691 0.867455 69.329C2.45829 70.9552 6.04458 71.3061 9.36112 71.3826C10.9935 71.4208 14.1232 71.4243 16.3297 71.6258C17.4294 71.7266 19.0375 71.6779 23.2014 72.3069C29.1359 73.2034 32.1031 73.6516 33.981 74.0095C37.2007 74.6246 39.4763 75.0103 43.3842 75.9763C49.336 77.4496 51.2588 78.0611 53.8733 78.9924C54.6999 79.2877 59.2061 80.7958 63.5394 82.9919C66.434 84.4582 68.4329 85.7057 72.3097 88.1345C74.5092 89.514 77.4453 91.4043 80.8656 93.7602C80.9659 93.8297 81.329 94.0625 81.6334 93.9965C81.6852 93.9861 81.7198 93.9618 81.7509 93.9513C81.8685 93.9062 81.9965 93.59 81.9654 93.4683C81.6714 92.3842 81.3982 91.6893 80.8691 90.692C80.7238 90.4175 80.5232 90.1603 80.5232 90.1603C80.5232 90.1603 80.1601 89.6322 79.7174 89.1388C77.4142 86.5639 73.7691 83.9717 73.7691 83.9717C70.2382 81.4595 68.471 80.2016 66.7245 79.0966C63.9198 77.3245 61.7099 76.1083 60.413 75.4029C58.6147 74.4195 56.64 73.3389 54.0047 72.147C51.328 70.9343 49.3187 70.2116 46.8252 69.322C44.2557 68.4047 40.583 67.1051 35.5926 65.7951C30.5192 64.4608 26.5836 63.7728 24.2596 63.3732C21.5829 62.9111 19.2865 62.5914 17.5297 62.3725C17.3084 62.3551 17.2323 62.2856 17.2046 62.23C16.9971 61.8339 18.4807 60.8366 20.1926 59.2139C20.6145 58.8143 21.1402 58.2479 22.1915 57.1116C23.2913 55.9267 25.0239 53.9148 27.2338 50.7701C27.4759 50.3879 28.2436 49.13 28.5168 47.8756C28.5929 47.5247 28.6379 47.1633 28.6379 47.1633C28.6725 46.8818 28.7624 46.1834 28.6759 45.551C28.5583 44.6823 28.1364 44.0812 27.7387 43.5148C27.2615 42.8372 26.805 42.4341 26.1444 41.8643C25.387 41.211 24.7611 40.794 23.8723 40.2103C23.3535 39.8593 22.6307 39.4006 21.7385 38.8933Z" fill="#75B96C"/>
<path d="M103.75 54.6411V1.35522H114.633V45.5893H141.691V54.6411H103.75Z" fill="white"/>
<path d="M197.128 48.0807L190.879 56.0345C187.814 54.5438 184.875 52.4937 182.056 49.8772C179.874 51.8335 177.557 53.272 175.109 54.1998C172.657 55.1276 169.741 55.5932 166.359 55.5932C159.643 55.5932 154.594 53.7133 151.211 49.9502C148.59 47.0418 147.279 43.6955 147.279 39.908C147.279 36.4645 148.31 33.365 150.368 30.6164C152.425 27.8679 155.503 25.4807 159.594 23.4514C157.755 21.2762 156.371 19.2052 155.441 17.2385C154.511 15.2718 154.044 13.4093 154.044 11.651C154.044 8.4021 155.348 5.64659 157.959 3.38798C160.57 1.12936 164.287 -0.00341797 169.115 -0.00341797C173.77 -0.00341797 177.412 1.18149 180.033 3.55129C182.655 5.9211 183.965 8.8156 183.965 12.2383C183.965 14.4135 183.315 16.4775 182.018 18.4303C180.718 20.3866 178.097 22.5966 174.151 25.0637L181.652 34.9217C182.534 33.358 183.294 31.3183 183.931 28.8026L193.268 30.9292C192.338 34.2267 191.529 36.6417 190.84 38.1671C190.156 39.6926 189.419 40.9713 188.634 41.9964C189.786 43.0735 191.276 44.2515 193.102 45.5337C194.928 46.8159 196.27 47.6672 197.128 48.0807ZM164.958 30.05C162.582 31.2488 160.805 32.6874 159.629 34.3727C158.453 36.0579 157.865 37.7814 157.865 39.5397C157.865 41.7636 158.595 43.5774 160.051 44.9812C161.507 46.385 163.464 47.0869 165.916 47.0869C167.535 47.0869 169.091 46.7707 170.585 46.1348C172.079 45.4989 173.711 44.4496 175.475 42.9832L164.958 30.05ZM169.005 18.8716L171.799 16.7451C173.857 15.1571 174.887 13.5795 174.887 12.0159C174.887 10.6955 174.389 9.5731 173.397 8.64533C172.404 7.71756 171.062 7.25194 169.371 7.25194C167.728 7.25194 166.442 7.66197 165.512 8.47854C164.581 9.29859 164.114 10.2437 164.114 11.3174C164.114 12.5892 164.9 14.1285 166.466 15.9354L169.005 18.8716Z" fill="white"/>
<path d="M203.855 0.91748H225.397C229.662 0.91748 232.843 1.09469 234.939 1.44912C237.035 1.80355 238.909 2.54368 240.562 3.66604C242.215 4.7884 243.595 6.28603 244.698 8.15547C245.802 10.0249 246.351 12.1202 246.351 14.4414C246.351 16.9571 245.67 19.2678 244.311 21.3666C242.952 23.4689 241.105 25.0429 238.778 26.0958C242.063 27.0479 244.588 28.6741 246.351 30.9709C248.115 33.2678 248.997 35.9677 248.997 39.0707C248.997 41.5134 248.426 43.8902 247.289 46.1975C246.147 48.5047 244.591 50.3498 242.62 51.7328C240.649 53.1123 238.214 53.9636 235.323 54.2798C233.507 54.4744 229.132 54.596 222.198 54.6447H203.855V0.91748V0.91748ZM214.739 9.85811V22.2805H221.87C226.11 22.2805 228.745 22.2214 229.772 22.0963C231.633 21.8774 233.099 21.2346 234.164 20.1713C235.229 19.108 235.762 17.7111 235.762 15.9737C235.762 14.3128 235.302 12.9646 234.382 11.9256C233.462 10.8867 232.096 10.2577 230.284 10.0388C229.205 9.91718 226.106 9.85464 220.985 9.85464H214.739V9.85811ZM214.739 31.2246V45.5894H224.813C228.735 45.5894 231.221 45.4782 232.276 45.2593C233.895 44.9674 235.212 44.2516 236.229 43.1153C237.246 41.9791 237.754 40.4571 237.754 38.5529C237.754 36.9406 237.363 35.5716 236.578 34.4492C235.793 33.3268 234.659 32.5068 233.179 31.9925C231.695 31.4783 228.479 31.2246 223.53 31.2246H214.739Z" fill="white"/>
<path d="M123.759 78.2351L118.15 79.2462C117.96 78.1308 117.531 77.2865 116.864 76.7235C116.196 76.1572 115.328 75.8757 114.259 75.8757C112.842 75.8757 111.711 76.3622 110.867 77.3386C110.023 78.315 109.601 79.9447 109.601 82.2346C109.601 84.7781 110.03 86.5746 110.888 87.624C111.745 88.6733 112.897 89.198 114.339 89.198C115.418 89.198 116.303 88.8923 116.992 88.2807C117.68 87.6691 118.167 86.6163 118.451 85.1221L124.04 86.0707C123.459 88.6282 122.345 90.5602 120.699 91.8632C119.053 93.1697 116.843 93.823 114.076 93.823C110.929 93.823 108.422 92.8327 106.551 90.8555C104.68 88.8784 103.746 86.1368 103.746 82.6376C103.746 79.0968 104.683 76.3413 106.561 74.3711C108.439 72.4009 110.977 71.4141 114.176 71.4141C116.794 71.4141 118.876 71.977 120.426 73.0993C121.975 74.2182 123.085 75.9313 123.759 78.2351Z" fill="white"/>
<path d="M126.758 82.3109C126.758 80.4275 127.225 78.6033 128.155 76.8381C129.085 75.0764 130.406 73.7281 132.115 72.8004C133.823 71.8726 135.729 71.407 137.835 71.407C141.089 71.407 143.755 72.4598 145.834 74.5656C147.912 76.6713 148.953 79.333 148.953 82.5506C148.953 85.7926 147.902 88.4821 145.803 90.6156C143.704 92.7491 141.061 93.8159 137.873 93.8159C135.902 93.8159 134.02 93.3711 132.232 92.4851C130.444 91.5955 129.082 90.2959 128.152 88.5794C127.221 86.8628 126.758 84.7745 126.758 82.3109ZM132.589 82.6132C132.589 84.7398 133.093 86.3694 134.107 87.4987C135.12 88.628 136.368 89.1944 137.852 89.1944C139.336 89.1944 140.584 88.628 141.587 87.4987C142.593 86.3694 143.095 84.7259 143.095 82.5715C143.095 80.4727 142.59 78.8569 141.587 77.7276C140.581 76.5983 139.336 76.0319 137.852 76.0319C136.365 76.0319 135.117 76.5983 134.107 77.7276C133.093 78.8604 132.589 80.4866 132.589 82.6132Z" fill="white"/>
<path d="M172.972 93.3365H167.28V82.3943C167.28 80.0801 167.159 78.5825 166.916 77.9014C166.674 77.2204 166.28 76.6922 165.73 76.3169C165.184 75.9417 164.527 75.7505 163.756 75.7505C162.77 75.7505 161.885 76.0216 161.103 76.5567C160.321 77.0953 159.782 77.8076 159.491 78.6972C159.201 79.5867 159.056 81.2268 159.056 83.6244V93.3365H153.363V71.897H158.648V75.0452C160.525 72.6232 162.888 71.4105 165.737 71.4105C166.993 71.4105 168.141 71.6364 169.182 72.0881C170.223 72.5398 171.008 73.1132 171.54 73.8151C172.073 74.5135 172.443 75.3092 172.654 76.1988C172.865 77.0883 172.969 78.3601 172.969 80.0141V93.3365H172.972Z" fill="white"/>
<path d="M176.738 87.2173L182.448 86.3486C182.69 87.4536 183.185 88.291 183.925 88.8609C184.668 89.4342 185.706 89.7191 187.044 89.7191C188.514 89.7191 189.624 89.4516 190.364 88.913C190.862 88.5377 191.115 88.0304 191.115 87.398C191.115 86.9671 190.98 86.6092 190.71 86.3277C190.426 86.0602 189.79 85.81 188.808 85.5807C184.219 84.5695 181.307 83.6487 180.079 82.8147C178.378 81.6576 177.527 80.0488 177.527 77.9882C177.527 76.1292 178.263 74.569 179.733 73.3042C181.203 72.0394 183.485 71.407 186.577 71.407C189.52 71.407 191.709 71.8865 193.138 72.8421C194.569 73.7976 195.555 75.2119 196.095 77.0813L190.727 78.0716C190.499 77.2377 190.063 76.5983 189.42 76.1535C188.78 75.7088 187.864 75.4864 186.674 75.4864C185.177 75.4864 184.101 75.6949 183.454 76.1118C183.022 76.4072 182.808 76.7929 182.808 77.262C182.808 77.6651 182.998 78.0091 183.375 78.2905C183.887 78.6658 185.661 79.1975 188.69 79.8855C191.72 80.5735 193.836 81.4144 195.04 82.4082C196.226 83.4193 196.821 84.8232 196.821 86.6266C196.821 88.5933 195.998 90.282 194.352 91.6928C192.705 93.1071 190.267 93.8124 187.041 93.8124C184.111 93.8124 181.791 93.2217 180.082 92.0368C178.384 90.8589 177.267 89.25 176.738 87.2173Z" fill="white"/>
<path d="M215.969 93.3365V90.1258C215.188 91.269 214.157 92.1724 212.881 92.8326C211.605 93.4928 210.26 93.823 208.842 93.823C207.396 93.823 206.099 93.5067 204.955 92.8743C203.806 92.2419 202.976 91.3524 202.465 90.2092C201.953 89.066 201.693 87.4849 201.693 85.4661V71.8936H207.386V81.7446C207.386 84.7607 207.49 86.6058 207.7 87.2869C207.911 87.9679 208.292 88.5065 208.845 88.9026C209.399 89.2988 210.101 89.4968 210.951 89.4968C211.923 89.4968 212.795 89.2328 213.562 88.7011C214.334 88.1695 214.859 87.5093 215.143 86.724C215.426 85.9352 215.568 84.0101 215.568 80.9384V71.8936H221.261V93.333H215.969V93.3365Z" fill="white"/>
<path d="M227.146 93.3364V63.7382H232.839V93.3364H227.146Z" fill="white"/>
<path d="M248.532 71.8935V76.4142H244.645V85.056C244.645 86.8073 244.683 87.8254 244.756 88.1138C244.828 88.4022 244.998 88.642 245.261 88.8296C245.523 89.0172 245.845 89.1111 246.222 89.1111C246.748 89.1111 247.512 88.9304 248.511 88.5655L248.999 92.9681C247.675 93.5345 246.177 93.8159 244.503 93.8159C243.476 93.8159 242.553 93.6457 241.73 93.3017C240.907 92.9577 240.301 92.5129 239.917 91.9708C239.534 91.4253 239.267 90.6886 239.119 89.7608C238.998 89.1006 238.935 87.7698 238.935 85.7648V76.4176H236.324V71.8935H238.935V67.6334L244.645 64.3219V71.8935H248.532Z" fill="white"/>
</g>
<defs>
<clipPath id="clip0_151_275">
<rect width="249" height="94" fill="white"/>
</clipPath>
</defs>
</svg>
