<svg width="198" height="79" viewBox="0 0 198 79" fill="none" xmlns="http://www.w3.org/2000/svg">
<path d="M97.2365 39.5938H116.849V47.125H88V1.625H97.2365V39.5938Z" fill="#3A3A3A"/>
<path d="M120.358 34.875C120.358 32.7708 120.933 30.8229 122.083 29.0312C123.252 27.2396 125.387 25.25 128.486 23.0625C127.152 21.25 126.105 19.5521 125.346 17.9688C124.587 16.3646 124.207 14.6979 124.207 12.9688C124.207 9.42708 125.305 6.55208 127.501 4.34375C129.718 2.11458 132.694 1 136.43 1C139.775 1 142.516 2.01042 144.65 4.03125C146.805 6.05208 147.883 8.57292 147.883 11.5938C147.883 15.2188 146.077 18.4167 142.464 21.1875L139.016 23.7188L146.744 32.8438C147.955 30.4271 148.56 27.7604 148.56 24.8438H156.134C156.134 30.7604 154.79 35.5521 152.101 39.2188L158.813 47.125H148.714L146.405 44.4375C143.101 46.6458 139.303 47.75 135.014 47.75C130.58 47.75 127.029 46.5729 124.361 44.2188C121.693 41.8438 120.358 38.7292 120.358 34.875ZM135.445 40.5C137.579 40.5 139.601 39.8958 141.51 38.6875L132.674 28.3125L132.027 28.7812C130.2 30.3646 129.287 32.2292 129.287 34.375C129.287 36.1875 129.851 37.6667 130.98 38.8125C132.13 39.9375 133.618 40.5 135.445 40.5ZM132.181 12.8438C132.181 14.4062 133.084 16.375 134.89 18.75L137.261 17.1562C138.472 16.3646 139.303 15.5938 139.755 14.8438C140.227 14.0938 140.463 13.1979 140.463 12.1562C140.463 11.1146 140.083 10.2083 139.324 9.4375C138.564 8.66667 137.589 8.28125 136.399 8.28125C135.126 8.28125 134.1 8.69792 133.32 9.53125C132.561 10.3646 132.181 11.4688 132.181 12.8438Z" fill="#3A3A3A"/>
<path d="M163.554 47.125V1.625H179.256C184.695 1.625 188.821 2.6875 191.633 4.8125C194.445 6.91667 195.851 10.0104 195.851 14.0938C195.851 16.3229 195.287 18.2917 194.158 20C193.029 21.6875 191.459 22.9271 189.447 23.7188C191.746 24.3021 193.552 25.4792 194.866 27.25C196.2 29.0208 196.867 31.1875 196.867 33.75C196.867 38.125 195.492 41.4375 192.741 43.6875C189.991 45.9375 186.071 47.0833 180.98 47.125H163.554ZM172.791 27.3125V39.5938H180.703C182.879 39.5938 184.572 39.0729 185.783 38.0312C187.015 36.9688 187.631 35.5104 187.631 33.6562C187.631 29.4896 185.506 27.375 181.257 27.3125H172.791ZM172.791 20.6875H179.626C184.285 20.6042 186.615 18.7188 186.615 15.0312C186.615 12.9688 186.019 11.4896 184.829 10.5938C183.659 9.67708 181.801 9.21875 179.256 9.21875H172.791V20.6875Z" fill="#3A3A3A"/>
<path d="M96.0735 74.1067C96.9434 74.1067 97.6502 73.8616 98.1938 73.3715C98.7375 72.8813 99.0202 72.2296 99.042 71.4165H103.462C103.451 72.6418 103.125 73.7669 102.483 74.7918C101.842 75.8055 100.961 76.5964 99.8412 77.1645C98.7321 77.7215 97.5034 78 96.1551 78C93.6324 78 91.6426 77.1812 90.1856 75.5437C88.7285 73.895 88 71.6225 88 68.7262V68.4087C88 65.6238 88.7231 63.4015 90.1693 61.7416C91.6154 60.0818 93.5998 59.2519 96.1225 59.2519C98.3298 59.2519 100.097 59.898 101.423 61.1902C102.761 62.4713 103.44 64.1812 103.462 66.3201H99.042C99.0202 65.3843 98.7375 64.6268 98.1938 64.0476C97.6502 63.4572 96.9325 63.162 96.0409 63.162C94.9427 63.162 94.1109 63.5741 93.5455 64.3985C92.9909 65.2117 92.7136 66.5373 92.7136 68.3753V68.8766C92.7136 70.7369 92.9909 72.0737 93.5455 72.8869C94.1 73.7001 94.9427 74.1067 96.0735 74.1067Z" fill="#3A3A3A"/>
<path d="M105.419 68.4589C105.419 66.6654 105.756 65.0668 106.43 63.6632C107.105 62.2596 108.072 61.1735 109.334 60.4049C110.606 59.6362 112.079 59.2519 113.754 59.2519C116.135 59.2519 118.076 59.9983 119.576 61.491C121.088 62.9837 121.931 65.0111 122.105 67.5733L122.137 68.8098C122.137 71.5835 121.381 73.8115 119.87 75.4936C118.359 77.1645 116.331 78 113.786 78C111.242 78 109.209 77.1645 107.686 75.4936C106.175 73.8226 105.419 71.5501 105.419 68.6761V68.4589ZM110.133 68.8098C110.133 70.5253 110.448 71.8398 111.079 72.7532C111.71 73.6555 112.612 74.1067 113.786 74.1067C114.928 74.1067 115.82 73.6611 116.461 72.7699C117.103 71.8676 117.424 70.4306 117.424 68.4589C117.424 66.7768 117.103 65.4734 116.461 64.5488C115.82 63.6243 114.917 63.162 113.754 63.162C112.601 63.162 111.71 63.6243 111.079 64.5488C110.448 65.4623 110.133 66.8826 110.133 68.8098Z" fill="#3A3A3A"/>
<path d="M129.379 59.5861L129.526 61.6748C130.787 60.0596 132.478 59.2519 134.598 59.2519C136.468 59.2519 137.86 59.8145 138.774 60.9396C139.687 62.0647 140.154 63.7468 140.176 65.9859V77.6658H135.463V66.1028C135.463 65.078 135.245 64.3372 134.81 63.8805C134.375 63.4126 133.652 63.1787 132.641 63.1787C131.314 63.1787 130.319 63.7579 129.656 64.9165V77.6658H124.943V59.5861H129.379Z" fill="#3A3A3A"/>
<path d="M153.322 72.6697C153.322 72.0793 153.034 71.617 152.458 71.2828C151.892 70.9374 150.979 70.6311 149.718 70.3638C145.52 69.4614 143.422 67.6345 143.422 64.883C143.422 63.2789 144.069 61.9422 145.363 60.8728C146.668 59.7922 148.369 59.2519 150.468 59.2519C152.708 59.2519 154.497 59.7922 155.834 60.8728C157.182 61.9533 157.856 63.3569 157.856 65.0835H153.143C153.143 64.3929 152.925 63.8248 152.49 63.3792C152.055 62.9225 151.376 62.6941 150.452 62.6941C149.658 62.6941 149.043 62.8779 148.609 63.2455C148.174 63.6131 147.956 64.081 147.956 64.6491C147.956 65.1838 148.201 65.6183 148.69 65.9524C149.19 66.2755 150.028 66.5596 151.202 66.8046C152.376 67.0386 153.366 67.3059 154.17 67.6067C156.66 68.5424 157.905 70.1632 157.905 72.4692C157.905 74.1178 157.215 75.4546 155.834 76.4794C154.453 77.4931 152.67 78 150.484 78C149.005 78 147.69 77.7326 146.537 77.1979C145.395 76.6521 144.498 75.9113 143.846 74.9756C143.194 74.0287 142.867 73.0094 142.867 71.9177H147.336C147.38 72.7755 147.69 73.4327 148.266 73.8895C148.842 74.3462 149.614 74.5746 150.582 74.5746C151.485 74.5746 152.164 74.4019 152.621 74.0566C153.088 73.7001 153.322 73.2378 153.322 72.6697Z" fill="#3A3A3A"/>
<path d="M171.524 75.8278C170.361 77.2759 168.752 78 166.697 78C164.805 78 163.358 77.443 162.358 76.3291C161.369 75.2151 160.863 73.5831 160.841 71.4332V59.5861H165.555V71.2661C165.555 73.1487 166.392 74.09 168.067 74.09C169.665 74.09 170.763 73.5219 171.361 72.3856V59.5861H176.091V77.6658H171.655L171.524 75.8278Z" fill="#3A3A3A"/>
<path d="M184.621 77.6658H179.891V52H184.621V77.6658Z" fill="#3A3A3A"/>
<path d="M194.163 55.1414V59.5861H197.18V63.1285H194.163V72.1517C194.163 72.8201 194.288 73.2991 194.538 73.5887C194.788 73.8783 195.266 74.0231 195.973 74.0231C196.495 74.0231 196.957 73.9841 197.36 73.9062V77.5656C196.435 77.8552 195.484 78 194.505 78C191.2 78 189.514 76.2901 189.449 72.8702V63.1285H186.872V59.5861H189.449V55.1414H194.163Z" fill="#3A3A3A"/>
<path d="M35.1553 0C35.0976 0.316365 34.9849 0.824292 34.7654 1.41639C33.9825 3.52646 32.544 4.87899 31.3769 5.79616C26.4315 9.68543 16.5233 13.267 16.5233 13.267C14.7959 13.8911 10.9828 15.2697 4.79811 17.5162C4.42258 17.789 3.20067 18.7497 3.10534 20.2213C3.06201 20.9033 3.27577 21.4229 3.36532 21.6377C4.28392 23.8029 7.61458 25.4805 10.7921 26.7895C12.3549 27.4338 15.3823 28.6064 17.4361 29.6223C18.4616 30.1302 20.0331 30.6816 23.8201 32.8411C29.2162 35.9205 31.9142 37.4617 33.5926 38.5066C36.4726 40.3032 38.5236 41.5222 41.9322 43.9167C47.1232 47.5622 48.7495 48.8683 50.9218 50.7433C51.6093 51.3354 55.3906 54.4758 58.7386 58.2141C60.9773 60.7131 62.4332 62.6607 65.2526 66.4571C66.8529 68.6107 68.9675 71.5334 71.3766 75.086C71.446 75.1905 71.7088 75.5533 72.0295 75.5997C72.0815 75.6084 72.1248 75.5997 72.1595 75.5997C72.2895 75.5997 72.535 75.3414 72.5494 75.2137C72.6794 74.0556 72.6794 73.2807 72.5494 72.1226C72.5148 71.8033 72.4194 71.4783 72.4194 71.4783C72.4194 71.4783 72.2663 70.8339 72.0295 70.1896C70.7845 66.8431 68.2511 62.977 68.2511 62.977C65.7957 59.23 64.568 57.3579 63.2999 55.6368C61.2662 52.8766 59.5908 50.8797 58.6086 49.7129C57.2452 48.0933 55.7459 46.3113 53.6574 44.1751C51.5342 42.004 49.8674 40.5557 47.7934 38.7649C45.6586 36.919 42.6053 34.2952 38.2838 31.1663C33.8901 27.9853 30.3486 25.8549 28.2514 24.5981C25.8393 23.1527 23.7421 21.9888 22.1274 21.121C21.9194 21.0223 21.8732 20.9266 21.8674 20.8627C21.8183 20.4041 23.6324 19.992 25.9058 19.0603C26.4633 18.831 27.1912 18.4798 28.6414 17.7716C30.1579 17.0344 32.6018 15.737 35.9382 13.5224C36.3166 13.2438 37.5385 12.315 38.2838 11.2034C38.4918 10.8928 38.6738 10.5591 38.6738 10.5591C38.8153 10.3007 39.1649 9.6593 39.3266 9.01496C39.5433 8.12972 39.3642 7.3925 39.1966 6.69592C38.9944 5.86292 38.7056 5.30275 38.2838 4.50748C37.8014 3.59321 37.3565 2.95758 36.721 2.06073C36.3484 1.53829 35.8255 0.827194 35.1553 0Z" fill="#75B96C"/>
<path d="M69.5611 9.13965C69.4283 9.36314 69.2029 9.71723 68.8736 10.1062C67.6951 11.4906 66.2334 12.1234 65.0952 12.5007C60.274 14.1028 51.7842 14.1289 51.7842 14.1289C50.3023 14.1318 47.0352 14.1434 41.7315 14.1667C41.3733 14.2712 40.1803 14.6688 39.7008 15.7543C39.4783 16.2564 39.4957 16.7092 39.5043 16.8979C39.5997 18.7844 41.6535 20.9584 43.6958 22.8101C44.7011 23.7215 46.6654 25.4281 47.9393 26.7545C48.5748 27.4163 49.6119 28.258 51.8766 30.9224C55.1061 34.7159 56.7209 36.6112 57.7002 37.8592C59.3814 39.9983 60.5947 41.4786 62.5099 44.2127C65.4274 48.3777 66.294 49.8086 67.4206 51.8142C67.7759 52.4498 69.7662 55.8514 71.2655 59.5869C72.2679 62.0859 72.8283 63.955 73.9086 67.5889C74.5239 69.6525 75.3125 72.436 76.1502 75.7796C76.1762 75.8782 76.2716 76.2236 76.4998 76.3455C76.5373 76.3659 76.572 76.3717 76.598 76.3804C76.6962 76.4152 76.9533 76.2875 76.9995 76.1946C77.4184 75.3529 77.635 74.7666 77.8575 73.8552C77.9181 73.6027 77.9384 73.3328 77.9384 73.3328C77.9384 73.3328 78.0019 72.8046 77.999 72.2531C77.9846 69.3826 77.1411 65.772 77.1411 65.772C76.3236 62.2716 75.9134 60.5215 75.431 58.8758C74.6568 56.2346 73.9433 54.2696 73.5244 53.1203C72.9409 51.5239 72.3025 49.7708 71.3146 47.5882C70.3093 45.3708 69.4514 43.8237 68.3768 41.9052C67.2733 39.9316 65.6903 37.1162 63.2869 33.5782C60.8431 29.9791 58.7546 27.4076 57.5182 25.8896C56.0941 24.1423 54.8288 22.6911 53.8496 21.5969C53.7196 21.4663 53.7109 21.3821 53.7225 21.3328C53.812 20.9729 55.2997 21.1528 57.2784 21.0629C57.7637 21.0396 58.4108 20.97 59.7049 20.8307C61.0568 20.6826 63.2667 20.3634 66.4067 19.5913C66.7707 19.4839 67.9521 19.1095 68.8245 18.4739C69.0701 18.2939 69.2983 18.0937 69.2983 18.0937C69.4774 17.9369 69.9193 17.5451 70.2198 17.101C70.63 16.4915 70.6993 15.882 70.7628 15.3102C70.8408 14.6253 70.7773 14.1231 70.6791 13.4062C70.5693 12.5819 70.4075 11.9811 70.1735 11.1307C70.0378 10.6257 69.8385 9.94653 69.5611 9.13965Z" fill="#75B96C"/>
<path d="M18.1578 32.3359C18.2069 32.5914 18.2734 33.0035 18.2849 33.5114C18.3225 35.3196 17.6436 36.7505 17.0399 37.7751C14.4834 42.1229 8.11384 47.6724 8.11384 47.6724C7.00169 48.6418 4.55208 50.778 0.580137 54.2522C0.380817 54.5657 -0.251806 55.6396 0.10928 56.7715C0.276824 57.294 0.591691 57.6248 0.724571 57.7584C2.05337 59.1167 5.04894 59.4098 7.81919 59.4737C9.18265 59.5056 11.7969 59.5085 13.6399 59.6769C14.5585 59.761 15.9017 59.7204 19.3797 60.2457C24.3367 60.9946 26.8152 61.369 28.3838 61.6679C31.0731 62.1817 32.9739 62.5038 36.2381 63.3107C41.2096 64.5413 42.8157 65.0522 44.9995 65.83C45.6899 66.0767 49.4539 67.3364 53.0734 69.1707C55.4912 70.3956 57.1609 71.4375 60.3991 73.4663C62.2363 74.6186 64.6888 76.1975 67.5457 78.1654C67.6295 78.2234 67.9328 78.4179 68.187 78.3627C68.2304 78.354 68.2592 78.3337 68.2852 78.325C68.3835 78.2873 68.4903 78.0232 68.4643 77.9216C68.2188 77.016 67.9906 76.4355 67.5486 75.6025C67.4273 75.3732 67.2598 75.1585 67.2598 75.1585C67.2598 75.1585 66.9564 74.7173 66.5867 74.3051C64.6628 72.1544 61.6181 69.9892 61.6181 69.9892C58.6688 67.8908 57.1927 66.8401 55.7339 65.9171C53.3912 64.4369 51.5453 63.421 50.462 62.8318C48.9599 62.0104 47.3105 61.1078 45.1093 60.1122C42.8734 59.0993 41.1951 58.4956 39.1124 57.7526C36.9661 56.9863 33.8983 55.9008 29.7299 54.8066C25.4922 53.6921 22.2049 53.1174 20.2637 52.7836C18.0278 52.3976 16.1097 52.1305 14.6423 51.9477C14.4574 51.9332 14.3938 51.8751 14.3707 51.8287C14.1974 51.4978 15.4367 50.6648 16.8666 49.3094C17.219 48.9756 17.6581 48.5025 18.5362 47.5534C19.4548 46.5637 20.9021 44.8832 22.7479 42.2565C22.9501 41.9372 23.5914 40.8865 23.8196 39.8387C23.8832 39.5456 23.9207 39.2437 23.9207 39.2437C23.9496 39.0086 24.0247 38.4252 23.9525 37.897C23.8543 37.1714 23.5019 36.6693 23.1697 36.1962C22.771 35.6302 22.3897 35.2935 21.838 34.8175C21.2054 34.2719 20.6825 33.9236 19.9401 33.436C19.5068 33.1428 18.9031 32.7597 18.1578 32.3359Z" fill="#75B96C"/>
</svg>
