<svg width="80" height="80" viewBox="0 0 80 80" fill="none" xmlns="http://www.w3.org/2000/svg">
<path d="M29.9191 38.12H13.0391C11.9991 38.12 11.1191 39 11.1191 40.04V78.92C11.1191 79.32 11.4391 79.56 11.7591 79.56H31.1991C31.5991 79.56 31.8391 79.24 31.8391 78.92V40.04C31.8391 39 31.0391 38.12 29.9191 38.12ZM26.3191 51.56H23.1191V44.2H26.3191V51.56Z" fill="#3A3A3A"/>
<path d="M2.32 58.84H77.68C78.96 58.84 80 59.88 80 61.16V64.52C80 65.8 78.96 66.84 77.68 66.84H2.32C1.04 66.84 0 65.8 0 64.52V61.16C0 59.88 1.04 58.84 2.32 58.84Z" fill="#3A3A3A"/>
<path d="M3.35938 66.84H7.67938V78.92C7.67938 79.32 7.35938 79.56 7.03938 79.56H3.99938C3.59938 79.56 3.35938 79.24 3.35938 78.92V66.84Z" fill="#3A3A3A"/>
<path d="M35.5195 66.84H39.8395V78.92C39.8395 79.32 39.5195 79.56 39.1995 79.56H36.2395C35.8395 79.56 35.5995 79.24 35.5995 78.92V66.84H35.5195Z" fill="#3A3A3A"/>
<path d="M53.2793 66.84H57.5993V78.92C57.5993 79.32 57.2793 79.56 56.9593 79.56H53.9993C53.5993 79.56 53.3593 79.24 53.3593 78.92V66.84H53.2793Z" fill="#3A3A3A"/>
<path d="M72.1602 66.84H76.4802V78.92C76.4802 79.32 76.1602 79.56 75.8402 79.56H72.8002C72.4002 79.56 72.1602 79.24 72.1602 78.92V66.84Z" fill="#3A3A3A"/>
<path d="M45.8401 57.8H38.8801C38.4801 57.8 38.0801 57.48 38.0801 57C38.0801 56.52 38.4801 56.2 38.8801 56.2H45.8401C46.2401 56.2 46.6401 56.52 46.6401 57C46.6401 57.48 46.3201 57.8 45.8401 57.8Z" fill="#3A3A3A"/>
<path d="M57.9202 61.48H50.9602C50.5602 61.48 50.1602 61.16 50.1602 60.68C50.1602 60.2 50.5602 59.88 50.9602 59.88H57.9202C58.4002 59.88 58.7202 60.2 58.7202 60.68C58.7202 61.16 58.4002 61.48 57.9202 61.48Z" fill="#3A3A3A"/>
<path d="M58.7209 57.8H51.7609C51.2809 57.8 50.9609 57.48 50.9609 57C50.9609 56.52 51.2809 56.2 51.7609 56.2H58.7209C59.2009 56.2 59.5209 56.52 59.5209 57C59.5209 57.48 59.1209 57.8 58.7209 57.8Z" fill="#3A3A3A"/>
<path d="M71.8401 57.8H64.8801C64.4001 57.8 64.0801 57.48 64.0801 57C64.0801 56.52 64.4001 56.2 64.8801 56.2H71.8401C72.3201 56.2 72.6401 56.52 72.6401 57C72.6401 57.48 72.3201 57.8 71.8401 57.8Z" fill="#3A3A3A"/>
<path d="M5.51914 57.8C6.84462 57.8 7.91914 56.7255 7.91914 55.4C7.91914 54.0745 6.84462 53 5.51914 53C4.19366 53 3.11914 54.0745 3.11914 55.4C3.11914 56.7255 4.19366 57.8 5.51914 57.8Z" fill="#3A3A3A"/>
<path d="M21.1199 31H17.8399C16.7999 31 15.9199 31.88 15.9199 32.92V38.12H23.0399V32.92C23.0399 31.88 22.2399 31 21.1199 31Z" fill="#3A3A3A"/>
</svg>
