<svg width="50" height="50" viewBox="0 0 50 50" fill="none" xmlns="http://www.w3.org/2000/svg">
<path fill-rule="evenodd" clip-rule="evenodd" d="M50 43C50 46.866 46.866 50 43 50H7C3.13401 50 0 46.866 0 43V7C0 3.13401 3.13401 0 7 0H43C46.866 0 50 3.13401 50 7V43ZM33.8667 39.275C34.3146 39.5937 34.8896 39.6729 35.4042 39.4771C35.9167 39.2833 36.2958 38.8437 36.4104 38.3104C37.6167 32.6396 40.5458 18.2812 41.6437 13.1229C41.725 12.7333 41.5875 12.3292 41.2833 12.0688C40.9771 11.8104 40.5521 11.7354 40.175 11.875C34.3521 14.0292 16.4167 20.7583 9.08542 23.4729C8.62083 23.6437 8.31875 24.0917 8.33333 24.5833C8.35 25.0729 8.68125 25.5 9.15625 25.6437C12.4437 26.625 16.7604 27.9937 16.7604 27.9937C16.7604 27.9937 18.775 34.0854 19.8271 37.1812C19.9583 37.5708 20.2646 37.8771 20.6646 37.9813C21.0667 38.0854 21.4917 37.9771 21.7917 37.6937C23.4812 36.1 26.0917 33.6354 26.0917 33.6354C26.0917 33.6354 31.0521 37.2729 33.8667 39.275ZM18.575 27.225L20.9062 34.9167L21.425 30.0458C21.425 30.0458 30.4333 21.9208 35.5708 17.2875C35.7208 17.1521 35.7417 16.925 35.6167 16.7646C35.4917 16.6042 35.2646 16.5667 35.0937 16.675C29.1417 20.4771 18.575 27.225 18.575 27.225Z" fill="#3A3A3A"/>
</svg>
