<svg width="80" height="80" viewBox="0 0 80 80" fill="none" xmlns="http://www.w3.org/2000/svg">
<path d="M12.608 80.0001H0.936C0.416 80.0001 0 79.5841 0 79.0641V67.3921C0 66.8721 0.416 66.4561 0.936 66.4561H12.608C13.128 66.4561 13.544 66.8721 13.544 67.3921V79.0641C13.544 79.5841 13.12 80.0001 12.608 80.0001Z" fill="#3A3A3A"/>
<path d="M28.36 80.0001H16.688C16.168 80.0001 15.752 79.5841 15.752 79.0641V67.3921C15.752 66.8721 16.168 66.4561 16.688 66.4561H28.36C28.88 66.4561 29.2959 66.8721 29.2959 67.3921V79.0641C29.2959 79.5841 28.88 80.0001 28.36 80.0001Z" fill="#3A3A3A"/>
<path d="M20.4889 64.176H8.81686C8.29686 64.176 7.88086 63.76 7.88086 63.24V51.576C7.88086 51.056 8.29686 50.64 8.81686 50.64H20.4889C21.0089 50.64 21.4249 51.056 21.4249 51.576V63.248C21.4169 63.76 21.0009 64.176 20.4889 64.176Z" fill="#3A3A3A"/>
<path d="M70.4805 18.952C76.0805 18.952 80.0005 15.04 80.0005 9.416C80.0005 3.792 76.0805 0 70.4805 0H59.7285C59.2885 0 58.9365 0.352 58.9365 0.792V14.392H55.5205C55.0805 14.392 54.7285 14.744 54.7285 15.184V18.168C54.7285 18.608 55.0805 18.96 55.5205 18.96H58.9445V21.064H55.5205C55.0805 21.064 54.7285 21.416 54.7285 21.856V24.488C54.7285 24.928 55.0805 25.28 55.5205 25.28H58.9445V28.704C58.9445 29.144 59.2965 29.496 59.7365 29.496H63.5925C64.0325 29.496 64.3845 29.144 64.3845 28.704V25.28H75.0085C75.4485 25.28 75.8005 24.928 75.8005 24.488V21.856C75.8005 21.416 75.4485 21.064 75.0085 21.064H64.3765V18.96H70.4805V18.952ZM64.3765 4.528H69.5605C72.6325 4.528 74.4885 6.44 74.4885 9.416C74.4885 12.432 72.6325 14.392 69.4805 14.392H64.3845V4.528H64.3765Z" fill="#3A3A3A"/>
<path d="M8.12876 37.744H10.0808C10.7448 37.744 11.3128 37.232 11.3448 36.568C11.9528 25.392 21.2008 16.528 32.5288 16.528V19.56C32.5288 20.52 33.5688 21.12 34.3928 20.64L38.9688 18L44.4168 14.856C44.8568 14.6 44.8568 13.96 44.4168 13.704L38.9688 10.552L34.4008 7.90404C33.5688 7.42404 32.5368 8.02404 32.5368 8.98404V12.04C18.7928 12.04 7.56876 22.824 6.85676 36.392C6.82476 37.12 7.39276 37.744 8.12876 37.744Z" fill="#3A3A3A"/>
<path d="M71.8719 42.256H69.9199C69.2559 42.256 68.6879 42.768 68.6559 43.432C68.0479 54.608 58.7999 63.472 47.4719 63.472V60.44C47.4719 59.48 46.4319 58.88 45.6079 59.36L41.0319 62L35.5839 65.144C35.1439 65.4 35.1439 66.04 35.5839 66.296L41.0319 69.448L45.6079 72.088C46.4399 72.568 47.4719 71.968 47.4719 71.008V67.952C61.2159 67.952 72.4399 57.168 73.1519 43.6C73.1759 42.88 72.6079 42.256 71.8719 42.256Z" fill="#3A3A3A"/>
</svg>
