<svg width="80" height="80" viewBox="0 0 80 80" fill="none" xmlns="http://www.w3.org/2000/svg">
<path d="M78.07 61.76H24.44C23.03 61.76 21.88 60.46 21.88 58.85V36.05C21.88 34.87 21.04 33.91 20 33.91H20.56V31.25C20.56 30.67 20.09 30.21 19.51 30.21H14.76C13.77 30.21 12.97 31.01 12.97 32V33.91H11.68C5.23 33.91 0 39.85 0 47.19V69.02C0 70.27 0.9 71.29 2 71.29H4.32C5.47 68.8 8 67.07 10.94 67.07C13.88 67.07 16.41 68.8 17.56 71.29H49.28C50.43 68.8 52.96 67.07 55.9 67.07C58.84 67.07 61.37 68.8 62.52 71.29H63.36C64.51 68.8 67.04 67.07 69.98 67.07C72.92 67.07 75.45 68.8 76.6 71.29H78C79.1 71.29 80 70.27 80 69.02V63.95C80 62.74 79.14 61.76 78.07 61.76ZM16.76 47.4C16.76 48.07 16.22 48.62 15.54 48.62H8.63C7.96 48.62 7.41 48.07 7.41 47.4V44.76C7.41 42.36 9.36 40.41 11.76 40.41H15.54C16.22 40.41 16.76 40.96 16.76 41.63V47.4Z" fill="#3A3A3A"/>
<path d="M76.7409 35.21H26.9709C25.1709 35.21 23.7109 36.67 23.7109 38.47V57.26C23.7109 59.07 25.1709 60.53 26.9709 60.53H76.7409C78.5409 60.53 80.0009 59.07 80.0009 57.26V38.47C80.0009 36.67 78.5409 35.21 76.7409 35.21ZM36.7109 54.24C36.7109 54.78 36.2709 55.22 35.7309 55.22H35.2109C34.6709 55.22 34.2409 54.78 34.2409 54.24V41.49C34.2409 40.95 34.6709 40.51 35.2109 40.51H35.7309C36.2709 40.51 36.7109 40.95 36.7109 41.49V54.24ZM53.1009 54.24C53.1009 54.78 52.6709 55.22 52.1209 55.22H51.6109C51.0709 55.22 50.6309 54.78 50.6309 54.24V41.49C50.6309 40.95 51.0709 40.51 51.6109 40.51H52.1209C52.6709 40.51 53.1009 40.95 53.1009 41.49V54.24ZM69.5009 54.24C69.5009 54.78 69.0609 55.22 68.5209 55.22H68.0109C67.4709 55.22 67.0309 54.78 67.0309 54.24V41.49C67.0309 40.95 67.4709 40.51 68.0109 40.51H68.5209C69.0609 40.51 69.5009 40.95 69.5009 41.49V54.24Z" fill="#3A3A3A"/>
<path d="M16.5398 74.3999C16.5398 77.4899 14.0298 79.9999 10.9398 79.9999C7.84984 79.9999 5.33984 77.4899 5.33984 74.3999C5.33984 73.2499 5.68984 72.1799 6.28984 71.2899C7.28984 69.7899 8.99984 68.7999 10.9398 68.7999C12.8798 68.7999 14.5898 69.7899 15.5898 71.2899C16.1898 72.1799 16.5398 73.2499 16.5398 74.3999Z" fill="#3A3A3A"/>
<path d="M61.5008 74.3999C61.5008 77.4899 58.9908 79.9999 55.9008 79.9999C52.8008 79.9999 50.3008 77.4899 50.3008 74.3999C50.3008 73.2499 50.6408 72.1799 51.2408 71.2899C52.2408 69.7899 53.9508 68.7999 55.9008 68.7999C57.8408 68.7999 59.5508 69.7899 60.5508 71.2899C61.1508 72.1799 61.5008 73.2499 61.5008 74.3999Z" fill="#3A3A3A"/>
<path d="M75.5809 74.3999C75.5809 77.4899 73.0709 79.9999 69.9809 79.9999C66.8909 79.9999 64.3809 77.4899 64.3809 74.3999C64.3809 73.2499 64.7309 72.1799 65.3309 71.2899C66.3309 69.7899 68.0409 68.7999 69.9809 68.7999C71.9209 68.7999 73.6309 69.7899 74.6309 71.2899C75.2309 72.1799 75.5809 73.2499 75.5809 74.3999Z" fill="#3A3A3A"/>
</svg>
