<svg width="51" height="50" viewBox="0 0 51 50" fill="none" xmlns="http://www.w3.org/2000/svg">
<path fill-rule="evenodd" clip-rule="evenodd" d="M44.6939 0C48.0655 0 50.8027 2.7373 50.8027 6.10879V43.8912C50.8027 47.2627 48.0654 50 44.6939 50H6.91152C3.54004 50 0.802734 47.2627 0.802734 43.8912V6.10879C0.802734 2.7373 3.53994 0 6.91152 0H44.6939V0ZM38.9642 12.471C35.6593 9.1623 31.2643 7.33936 26.5815 7.3374C16.9332 7.3374 9.08057 15.1895 9.07676 24.8407C9.07549 27.926 9.88154 30.9372 11.4134 33.5919L8.93008 42.6626L18.2095 40.2285C20.7662 41.623 23.6449 42.3581 26.5745 42.359H26.5817C36.2291 42.359 44.0823 34.5062 44.0863 24.8548C44.0881 20.1775 42.2689 15.7796 38.9642 12.471V12.471ZM26.5816 39.4028H26.5758C23.965 39.4019 21.4045 38.7004 19.1707 37.3748L18.6394 37.0595L13.1329 38.504L14.6026 33.1352L14.2567 32.5847C12.8004 30.2683 12.0311 27.5909 12.0322 24.8418C12.0354 16.8201 18.5622 10.2938 26.5875 10.2938C30.4735 10.2952 34.1265 11.8105 36.8735 14.5606C39.6204 17.3106 41.1322 20.9661 41.1308 24.8536C41.1274 32.876 34.6009 39.4027 26.5816 39.4028ZM34.5622 28.5062C34.1248 28.2873 31.9744 27.2294 31.5735 27.0833C31.1727 26.9373 30.8811 26.8645 30.5895 27.3021C30.2979 27.7399 29.4597 28.7252 29.2045 29.0172C28.9494 29.309 28.6942 29.3457 28.2569 29.1266C27.8195 28.9077 26.4103 28.4459 24.7396 26.9557C23.4395 25.7959 22.5615 24.3637 22.3064 23.9258C22.0514 23.4879 22.2792 23.2512 22.4981 23.0332C22.695 22.8372 22.9356 22.5223 23.1543 22.2669C23.373 22.0115 23.4459 21.829 23.5917 21.5372C23.7375 21.2452 23.6646 20.9899 23.5552 20.771C23.4459 20.5521 22.5711 18.3991 22.2066 17.5233C21.8517 16.6705 21.4911 16.786 21.2226 16.7726C20.9678 16.7599 20.6759 16.7571 20.3844 16.7571C20.0928 16.7571 19.6188 16.8666 19.218 17.3044C18.8171 17.7423 17.6872 18.8005 17.6872 20.9532C17.6872 23.1062 19.2544 25.1858 19.473 25.4778C19.6918 25.7698 22.5572 30.1875 26.9448 32.082C27.9883 32.5327 28.803 32.8019 29.4383 33.0033C30.4859 33.3363 31.4395 33.2894 32.1931 33.1767C33.0334 33.0512 34.7809 32.1187 35.1453 31.0971C35.5098 30.0752 35.5098 29.1995 35.4004 29.0172C35.2911 28.8347 34.9995 28.7252 34.5622 28.5062V28.5062Z" fill="#3A3A3A"/>
</svg>
